<svg width="800" height="600" viewBox="0 0 800 600" xmlns="http://www.w3.org/2000/svg">
  <path d="M483,20h30v5h-30z M528,20h20v116h-20z M498,25h30v71h-30z M548,25h5v574h-5z M458,30h5v10h-5z M488,30h10v71h-10z M553,30h20v569h-20z M452,35h6v10h-6z M463,35h10v15h-10z M483,35h5v66h-5z M573,35h10v564h-10z M447,40h5v15h-5z M473,40h10v61h-10z M583,40h5v559h-5z M442,45h5v15h-5z M588,45h5v554h-5z M437,50h5v10h-5z M468,50h5v51h-5z M432,55h5v5h-5z M463,55h5v46h-5z M593,55h5v303h-5z M427,60h5v5h-5z M598,60h5v273h-5z M437,65h5v5h-5z M603,65h5v253h-5z M432,70h5v5h-5z M447,70h5v5h-5z M458,70h5v36h-5z M442,75h5v6h-5z M452,75h6v26h-6z M608,75h5v223h-5z M432,81h5v5h-5z M447,81h5v20h-5z M613,81h5v197h-5z M437,86h10v20h-10z M618,91h5v182h-5z M427,96h10v10h-10z M503,96h25v5h-25z M623,96h5v172h-5z M422,101h5v25h-5z M493,101h5v5h-5z M508,101h20v5h-20z M628,101h5v167h-5z M412,106h10v5h-10z M427,106h5v10h-5z M437,106h5v5h-5z M513,106h15v10h-15z M633,106h5v157h-5z M417,111h5v85h-5z M412,116h5v132h-5z M518,116h10v10h-10z M638,116h5v137h-5z M407,121h5v5h-5z M523,126h5v10h-5z M402,131h5v10h-5z M643,131h5v107h-5z M407,136h5v90h-5z M533,136h15v463h-15z M397,141h5v5h-5z M392,146h5v10h-5z M387,151h5v5h-5z M397,151h5v5h-5z M523,156h10v443h-10z M392,161h5v15h-5z M402,161h5v55h-5z M503,161h10v20h-10z M463,166h25v45h-25z M513,166h10v433h-10z M447,171h16v25h-16z M488,171h15v15h-15z M242,176h10v15h-10z M287,176h10v15h-10z M437,176h10v10h-10z M297,181h5v15h-5z M392,181h5v20h-5z M508,181h5v5h-5z M252,186h5v10h-5z M272,186h5v5h-5z M282,186h5v5h-5z M442,186h5v15h-5z M488,186h5v15h-5z M648,186h5v30h-5z M227,191h5v10h-5z M247,191h5v5h-5z M257,191h5v5h-5z M292,191h5v10h-5z M437,191h5v10h-5z M493,191h5v10h-5z M212,196h15v5h-15z M397,196h5v15h-5z M447,196h5v5h-5z M458,196h5v10h-5z M212,201h10v127h-10z M252,201h15v5h-15z M508,201h5v5h-5z M392,206h5v15h-5z M463,211h20v5h-20z M186,216h16v112h-16z M207,216h5v107h-5z M222,216h5v10h-5z M272,216h5v17h-5z M508,216h5v5h-5z M181,221h5v107h-5z M202,221h5v112h-5z M242,221h30v12h-30z M277,221h5v22h-5z M508,226h5v17h-5z M242,233h10v5h-10z M407,233h5v25h-5z M161,238h5v10h-5z M222,238h5v90h-5z M247,238h5v30h-5z M402,238h5v20h-5z M140,243h10v15h-10z M166,243h5v90h-5z M272,243h5v5h-5z M150,248h6v5h-6z M257,248h15v5h-15z M282,248h5v15h-5z M468,248h10v10h-10z M508,248h5v50h-5z M135,253h5v10h-5z M227,253h5v75h-5z M262,253h15v5h-15z M458,253h10v50h-10z M498,253h10v45h-10z M120,258h5v15h-5z M156,258h10v80h-10z M252,258h10v10h-10z M277,258h5v5h-5z M417,258h5v5h-5z M468,258h5v10h-5z M483,258h15v5h-15z M125,263h10v5h-10z M150,263h6v90h-6z M171,263h10v70h-10z M262,263h15v5h-15z M447,263h11v15h-11z M493,263h5v35h-5z M115,268h5v201h-5z M145,268h5v80h-5z M422,268h5v20h-5z M483,268h10v35h-10z M135,273h10v5h-10z M468,273h15v30h-15z M110,278h5v5h-5z M120,278h20v161h-20z M452,278h6v10h-6z M232,283h5v20h-5z M427,283h5v35h-5z M140,288h5v141h-5z M432,288h5v45h-5z M437,298h10v50h-10z M447,303h5v60h-5z M463,303h10v10h-10z M508,303h5v106h-5z M452,308h11v65h-11z M110,313h5v166h-5z M282,313h15v5h-15z M463,313h5v10h-5z M503,313h5v86h-5z M232,318h5v10h-5z M252,318h30v5h-30z M287,318h15v5h-15z M468,318h5v15h-5z M498,318h5v10h-5z M252,323h10v5h-10z M292,323h10v5h-10z M493,323h5v5h-5z M217,328h5v15h-5z M282,328h15v5h-15z M267,333h15v5h-15z M463,333h5v45h-5z M498,333h5v66h-5z M105,338h5v151h-5z M156,338h5v5h-5z M202,338h5v40h-5z M262,338h15v5h-15z M468,338h15v5h-15z M488,338h10v61h-10z M252,343h20v5h-20z M468,343h5v41h-5z M483,343h5v51h-5z M100,348h5v156h-5z M191,348h5v36h-5z M212,348h5v20h-5z M237,348h25v5h-25z M442,348h5v5h-5z M473,348h10v41h-10z M207,353h5v20h-5z M222,353h25v5h-25z M150,358h6v56h-6z M181,358h10v26h-10z M196,358h6v26h-6z M217,358h25v5h-25z M95,363h5v151h-5z M145,363h5v56h-5z M156,363h10v36h-10z M171,363h10v26h-10z M217,363h10v5h-10z M90,368h5v156h-5z M166,368h5v26h-5z M458,373h5v11h-5z M181,384h5v5h-5z M452,384h6v35h-6z M593,389h5v210h-5z M85,394h5v20h-5z M458,394h5v30h-5z M598,394h15v205h-15z M156,399h5v5h-5z M412,399h20v200h-20z M463,399h5v35h-5z M613,399h15v200h-15z M397,404h15v195h-15z M628,404h15v195h-15z M387,409h10v190h-10z M468,409h5v25h-5z M643,409h15v190h-15z M80,414h5v136h-5z M357,414h10v185h-10z M377,414h10v185h-10z M503,414h10v185h-10z M658,414h10v185h-10z M342,419h15v180h-15z M367,419h10v180h-10z M432,419h5v180h-5z M493,419h10v5h-10z M668,419h10v180h-10z M75,424h5v175h-5z M85,424h5v116h-5z M332,424h10v175h-10z M437,424h5v175h-5z M498,424h5v5h-5z M678,424h10v175h-10z M267,429h25v170h-25z M322,429h10v170h-10z M442,429h5v170h-5z M688,429h10v170h-10z M252,434h15v165h-15z M292,434h30v165h-30z M447,434h5v165h-5z M478,434h5v5h-5z M498,434h5v165h-5z M698,434h10v165h-10z M70,439h5v160h-5z M120,439h15v5h-15z M247,439h5v160h-5z M452,439h6v160h-6z M473,439h5v5h-5z M493,439h5v10h-5z M708,439h15v160h-15z M120,444h10v10h-10z M458,444h10v155h-10z M723,444h10v155h-10z M65,449h5v150h-5z M242,449h5v150h-5z M468,449h10v150h-10z M733,449h10v150h-10z M60,454h5v145h-5z M120,454h5v5h-5z M232,454h10v145h-10z M478,454h10v145h-10z M493,454h5v145h-5z M743,454h10v145h-10z M222,459h10v140h-10z M488,459h5v140h-5z M753,459h17v140h-17z M55,464h5v135h-5z M212,464h10v135h-10z M770,464h10v135h-10z M202,469h10v130h-10z M780,469h10v130h-10z M50,474h5v125h-5z M196,474h6v125h-6z M790,474h5v125h-5z M186,479h10v120h-10z M795,479h5v120h-5z M45,484h5v115h-5z M176,484h10v115h-10z M40,489h5v110h-5z M171,489h5v110h-5z M35,494h5v105h-5z M166,494h5v105h-5z M30,499h5v100h-5z M161,499h5v100h-5z M25,504h5v95h-5z M156,504h5v95h-5z M10,509h15v90h-15z M150,509h6v90h-6z M5,514h5v85h-5z M140,514h10v85h-10z M0,519h5v80h-5z M135,519h5v80h-5z M130,529h5v70h-5z M125,540h5v59h-5z M115,545h10v54h-10z M110,550h5v49h-5z M95,560h15v39h-15z M80,565h15v34h-15z" fill="currentColor" fill-rule="evenodd"/>
</svg>